<?xml version="1.0" encoding="UTF-8"?>
<svg version="1.1" xmlns="http://www.w3.org/2000/svg" width="2502" height="4006">
<path d="M0 0 C4.51654595 1.39795808 8.64507758 3.18143503 12.8828125 5.2734375 C13.53018372 5.59288834 14.17755493 5.91233917 14.84454346 6.24147034 C16.94112944 7.27988559 19.03364035 8.32610132 21.125 9.375 C21.84407532 9.73514191 22.56315063 10.09528381 23.30401611 10.46633911 C35.21833202 16.45066919 46.77907708 22.78411617 58 30 C58.9806543 30.62986816 59.96130859 31.25973633 60.97167969 31.90869141 C68.68545166 36.88245 76.3480219 41.93186616 84 47 C85.54856689 48.022146 85.54856689 48.022146 87.12841797 49.06494141 C100.0559953 57.59999366 112.84455205 66.31376727 125.5390625 75.19140625 C130.56498484 78.70425215 135.62021252 82.17219107 140.6875 85.625 C149.66795465 91.75035318 158.57488882 97.97766872 167.47070312 104.22509766 C170.86278761 106.60545038 174.25910339 108.97972984 177.65527344 111.35424805 C186.76198741 117.72245056 195.84947999 124.11731832 204.92333984 130.53222656 C208.44767516 133.02320986 211.97394701 135.51144903 215.5 138 C216.91667568 138.99998722 218.33334236 139.99998722 219.75 141 C220.45125 141.495 221.1525 141.99 221.875 142.5 C224 144 226.125 145.5 228.25 147 C228.95116943 147.49491943 229.65233887 147.98983887 230.37475586 148.49975586 C231.79232654 149.50044188 233.20980692 150.50125583 234.62719727 151.50219727 C238.15430572 153.99275451 241.68292217 156.48111592 245.21484375 158.96484375 C253.27385838 164.63600219 261.28945164 170.36223312 269.26928711 176.14428711 C274.32059891 179.79987757 279.39943056 183.41351425 284.5 187 C291.12922712 191.66136749 297.70728537 196.38944431 304.26953125 201.14453125 C309.32082208 204.79995588 314.39952352 208.41357962 319.5 212 C326.12922712 216.66136749 332.70728537 221.38944431 339.26953125 226.14453125 C344.32082208 229.79995588 349.39952352 233.41357962 354.5 237 C361.12922712 241.66136749 367.70728537 246.38944431 374.26953125 251.14453125 C379.32082208 254.79995588 384.39952352 258.41357962 389.5 262 C396.12922712 266.66136749 402.70728537 271.38944431 409.26953125 276.14453125 C414.32082276 279.79995637 419.39955362 283.41353602 424.5 287 C431.19782638 291.71037086 437.84807447 296.48316721 444.48046875 301.28515625 C448.97568712 304.53950705 453.48013532 307.77997428 458 311 C463.28842633 314.76756165 468.55307864 318.56707142 473.8125 322.375 C480.37626995 327.12538944 486.97690434 331.81950981 493.60473633 336.47998047 C499.52908815 340.6521363 505.40207089 344.89289474 511.26953125 349.14453125 C517.01727348 353.30395093 522.80503258 357.40343241 528.60986328 361.48266602 C533.73219942 365.0883889 538.80837945 368.75403712 543.875 372.4375 C550.05158824 376.92548114 556.30345969 381.28140425 562.625 385.5625 C569.28117078 390.07230422 575.75913634 394.7559747 582.15722656 399.62353516 C587.28822306 403.51084778 592.54519051 407.17508873 597.86889648 410.79223633 C602.89269835 414.21431691 607.83326848 417.73854851 612.75 421.3125 C620.8115239 427.16860321 628.95736817 432.89641751 637.12890625 438.59765625 C641.59757107 441.71543164 646.05146658 444.85359157 650.5 448 C659.13068149 454.10103403 667.78989241 460.16098645 676.45166016 466.21777344 C680.63543062 469.14376734 684.81762594 472.07201064 689 475 C689.82693359 475.57878906 690.65386719 476.15757812 691.50585938 476.75390625 C695.63615016 479.64478787 699.76590423 482.53643019 703.89453125 485.4296875 C721.2494528 497.58970368 738.61798931 509.72919263 756.1237793 521.67138672 C759.19018762 523.76364313 762.25483092 525.85842163 765.31689453 527.95703125 C777.22448559 536.11767383 789.16125685 544.23440221 801.125 552.3125 C802.52800354 553.26003647 802.52800354 553.26003647 803.95935059 554.22671509 C817.7272294 563.51802336 831.58983261 572.61433728 845.62988281 581.48925781 C849.57833151 584.00604814 853.46576685 586.61079665 857.35131836 589.22314453 C862.80617555 592.88591825 868.30695868 596.47646198 873.8125 600.0625 C874.76793701 600.68608398 875.72337402 601.30966797 876.70776367 601.95214844 C881.60072645 605.14364803 886.49978004 608.32508905 891.41334534 611.48475647 C893.83448409 613.04302692 896.25210119 614.60670948 898.66928101 616.17111206 C899.84538441 616.93028852 901.02313714 617.68691611 902.20254517 618.44094849 C903.84613834 619.49204467 905.48377273 620.55244122 907.12109375 621.61328125 C908.0639624 622.21954346 909.00683105 622.82580566 909.97827148 623.45043945 C910.64544189 623.96179443 911.3126123 624.47314941 912 625 C912 625.66 912 626.32 912 627 C905.67560236 628.39768961 899.35071923 629.79316827 893.02557373 631.18746948 C890.76183528 631.68675962 888.49820368 632.18653442 886.23468018 632.6867981 C874.03835309 635.38201967 861.83894718 638.05311578 849.609375 640.59375 C847.69057828 640.99480527 845.77179538 641.39592668 843.85302734 641.79711914 C840.27235528 642.5452857 836.68913003 643.27913486 833.10400391 644.00561523 C831.47286845 644.34564824 829.84184 644.68619517 828.2109375 645.02734375 C827.49218445 645.16865723 826.7734314 645.3099707 826.03289795 645.45556641 C806.46561508 649.6174137 792.88993569 668.06691076 780.13671875 682.16015625 C760.63950404 703.66922316 737.90601587 728.73611609 706.859375 730.30859375 C677.73321821 731.24498043 653.70858173 715.92379418 629 702 C627.89720703 701.3807666 626.79441406 700.7615332 625.65820312 700.12353516 C610.21114278 691.44027478 594.98242387 682.467849 580 673 C578.41944209 672.00623798 576.83871447 671.01274583 575.2578125 670.01953125 C572.09572726 668.03051479 568.93877775 666.03365656 565.78515625 664.03125 C562.67702875 662.05799593 559.55987226 660.10060213 556.43359375 658.15625 C538.51814173 646.95432436 521.10773267 634.98595878 503.6137085 623.14257812 C495.54681439 617.68504426 487.44803892 612.27692444 479.31494141 606.91845703 C474.03527617 603.4230611 468.89684298 599.77167056 463.79003906 596.02856445 C459.20382496 592.69404809 454.53781603 589.47607158 449.875 586.25 C436.40611966 576.90285099 423.00535046 567.47387988 409.72924805 557.85473633 C404.6784978 554.19936562 399.60000779 550.58626635 394.5 547 C386.37202697 541.28226802 378.31333638 535.47175675 370.26611328 529.64111328 C367.26211171 527.46562324 364.25521121 525.29416205 361.24804688 523.12304688 C358.99705189 521.49787152 356.74657353 519.87198244 354.49609375 518.24609375 C351.51090892 516.08994701 348.52378612 513.93652496 345.53515625 511.78515625 C337.03185224 505.66039881 328.56953403 499.48415641 320.14086914 493.25708008 C314.44964695 489.05682267 308.73408548 484.8915419 303 480.75 C302.24009766 480.20085937 301.48019531 479.65171875 300.69726562 479.0859375 C297.82216223 477.01312737 294.94968123 474.96645415 292 473 C292.47195801 473.90838623 292.94391602 474.81677246 293.43017578 475.75268555 C322.80033562 532.33652054 348.65993201 590.28016335 371 650 C371.27438904 650.73099915 371.54877808 651.46199829 371.83148193 652.21514893 C388.42109018 696.42787266 402.53332498 741.46380843 415 787 C415.24645264 787.89577759 415.49290527 788.79155518 415.74682617 789.71447754 C444.15093411 892.97832181 461.60762191 999.52724621 474.1875 1166.9375 C474.22452026 1167.64739075 474.26154053 1168.35728149 474.29968262 1169.08868408 C474.52454635 1173.49692315 474.71807081 1177.90587465 474.89285278 1182.31637573 C474.96849016 1184.21080013 475.04730468 1186.10509896 475.12838745 1187.9992981 C476.22132805 1214.01342688 476.20111469 1240.02972796 476.1875 1266.0625 C476.18723312 1267.20568066 476.18696625 1268.34886131 476.18669128 1269.52668381 C476.17689262 1302.97571413 476.09470719 1336.37682375 474.18359375 1369.78149414 C473.98660075 1373.23489669 473.79785649 1376.68870109 473.609375 1380.14257812 C468.79859185 1467.11535381 459.0593696 1553.58851258 261.94165039 2232.97668457 C261.00214854 2234.99538346 260.06759791 2237.01629727 259.13476562 2239.03808594 C250.77217964 2257.15896109 242.04828812 2275.08606251 233.125 2292.9375 C232.64449188 2293.89951324 232.16398376 2294.86152649 231.66891479 2295.85269165 C225.61191266 2307.96526907 219.41735652 2319.99587086 213.0770874 2331.96243286 C210.52326236 2336.79360068 208.01275595 2341.64738776 205.5 2346.5 C204.92668945 2347.60674072 204.35337891 2348.71348145 203.76269531 2349.85375977 C188.37052807 2379.52589659 188.37052807 2379.52589659 173.32299805 2409.37329102 C170.81409509 2414.41743854 168.21283302 2419.40395521 165.5625 2424.375 C160.35372531 2434.15544306 155.43917414 2444.0817699 150.5 2454 C145.33880047 2464.36392993 140.17886692 2474.71719703 134.71484375 2484.92578125 C129.97736271 2493.82897839 125.5326886 2502.88413823 121.05786133 2511.92138672 C117.12028088 2519.85746861 113.06320823 2527.72087891 108.92016602 2535.55163574 C103.84863514 2545.15080395 98.92876773 2554.82699153 94 2564.5 C84.851478 2582.4545346 75.54718698 2600.31656011 66 2618.0625 C61.80191736 2625.87562843 57.62343375 2633.69816654 53.4921875 2641.546875 C46.30038008 2655.20467086 39.07843413 2668.81750325 31.40966797 2682.21606445 C28.15176687 2687.91868707 25.02555726 2693.67101192 22 2699.5 C16.84226854 2709.41887491 11.34561073 2719.13381198 5.80224609 2728.84130859 C3.92160713 2732.13739461 2.04834889 2735.43760387 0.17578125 2738.73828125 C-7.7095732 2752.62097335 -15.74815962 2766.40324241 -23.91796875 2780.12109375 C-26.75637869 2784.89162878 -29.56973106 2789.67573249 -32.36328125 2794.47265625 C-39.42409409 2806.59320736 -46.53405636 2818.6514363 -54.109375 2830.4609375 C-56.18055885 2833.692723 -58.20409957 2836.94964867 -60.203125 2840.2265625 C-66.58698053 2850.69081075 -73.24465215 2860.82461857 -80.40136719 2870.77392578 C-91.60642263 2886.37681148 -102.24937278 2902.33360771 -112.8125 2918.375 C-113.43188446 2919.31558258 -114.05126892 2920.25616516 -114.68942261 2921.22525024 C-125.20824313 2937.20921174 -135.62760118 2953.25547053 -145.9375 2969.375 C-146.6171582 2970.43734863 -147.29681641 2971.49969727 -147.99707031 2972.59423828 C-153.5513565 2981.28341896 -159.06862018 2989.99544288 -164.56445312 2998.72167969 C-167.03959579 3002.64991631 -169.52013168 3006.57474565 -172 3010.5 C-173.00002448 3012.08331787 -174.00002451 3013.66665119 -175 3015.25 C-177 3018.41666667 -179 3021.58333333 -181 3024.75 C-181.49483887 3025.5335083 -181.98967773 3026.3170166 -182.49951172 3027.12426758 C-183.50109035 3028.71007325 -184.50271808 3030.29584791 -185.50439453 3031.8815918 C-187.98064184 3035.80184757 -190.45607701 3039.72261107 -192.9296875 3043.64453125 C-198.82107466 3052.98317339 -204.7298703 3062.31051308 -210.66552734 3071.62109375 C-213.53054541 3076.11536196 -216.38930154 3080.61314771 -219.2265625 3085.125 C-228.43972621 3099.74607138 -238.01712351 3114.1141817 -247.63354492 3128.47143555 C-251.03829171 3133.5565213 -254.42887617 3138.65083901 -257.8125 3143.75 C-271.28207349 3164.040855 -285.06605167 3184.05202261 -299.37792969 3203.76025391 C-301.04220994 3206.05828326 -302.69796542 3208.36224213 -304.3515625 3210.66796875 C-310.74510627 3219.57585891 -317.2652278 3228.34730577 -324 3237 C-325.21396631 3238.58658924 -326.4279225 3240.17318675 -327.640625 3241.76074219 C-331.10958911 3246.29729098 -334.62261852 3250.79103242 -338.2109375 3255.23388672 C-346.0671004 3264.96316253 -353.5498228 3274.95795449 -361 3285 C-361.60666504 3285.81581543 -362.21333008 3286.63163086 -362.83837891 3287.47216797 C-371.05942215 3298.53357165 -379.10034632 3309.70729026 -387 3321 C-388.0987845 3322.5665282 -389.19774806 3324.1329308 -390.296875 3325.69921875 C-403.10745975 3343.96558827 -415.86102394 3362.27049371 -428.43212891 3380.70263672 C-430.54046568 3383.79193118 -432.65369083 3386.87786731 -434.7668457 3389.96386719 C-440.02035527 3397.63636787 -445.26313065 3405.31613313 -450.5 3413 C-456.78882556 3422.22736374 -463.09003919 3431.44616561 -469.3984375 3440.66015625 C-471.03712194 3443.05423424 -472.67493448 3445.44890654 -474.3125 3447.84375 C-480.3102668 3456.61460192 -486.31622604 3465.37969202 -492.33984375 3474.1328125 C-494.08427489 3476.66773869 -495.82643213 3479.20420008 -497.56640625 3481.7421875 C-510.2567843 3500.24491604 -523.10919533 3518.63650147 -536 3537 C-536.5151416 3537.73412109 -537.0302832 3538.46824219 -537.56103516 3539.22460938 C-544.74578465 3549.45624621 -552.02746577 3559.6145074 -559.36328125 3569.73828125 C-560.98509064 3571.97939733 -562.60265132 3574.22351315 -564.21875 3576.46875 C-576.00031066 3592.83302282 -587.91071608 3609.06803944 -600.37011719 3624.92480469 C-601.91959268 3626.897624 -603.46444511 3628.87396301 -605.0078125 3630.8515625 C-610.5774848 3637.97967288 -616.21905858 3645.04127764 -622 3652 C-622.41717285 3652.50354004 -622.8343457 3653.00708008 -623.26416016 3653.52587891 C-630.24540013 3661.93492342 -637.47119512 3670.07724603 -645 3678 C-645.49113281 3678.51981445 -645.98226562 3679.03962891 -646.48828125 3679.57519531 C-663.36222634 3697.32845548 -680.79721585 3707.61301935 -704.8125 3712.625 C-706.52150685 3712.99795649 -708.23008111 3713.3729004 -709.93823242 3713.74975586 C-713.34328106 3714.49793307 -716.75043553 3715.23484475 -720.16015625 3715.96142578 C-724.60367568 3716.91025642 -729.03765885 3717.89724316 -733.46875 3718.90234375 C-742.96966341 3721.05111992 -742.96966341 3721.05111992 -747.26953125 3722.00390625 C-748.14198486 3722.19799072 -749.01443848 3722.3920752 -749.91333008 3722.59204102 C-752 3723 -752 3723 -754 3723 C-750.56000674 3705.48894278 -746.90968139 3688.02905712 -743.13973951 3670.58626223 C-742.55497266 3667.87968303 -741.97134925 3665.17285771 -741.38767874 3662.46604192 C-740.01085555 3656.08114885 -738.63204949 3649.69668631 -737.25195312 3643.3125 C-735.83734639 3636.76848262 -734.4263791 3630.22368773 -733.01710165 3623.6785208 C-731.79449533 3618.00099166 -730.56955879 3612.32396858 -729.3428036 3606.64733446 C-728.61541298 3603.28130653 -727.88887917 3599.91509994 -727.16465378 3596.54838943 C-726.3592078 3592.80718916 -725.54994753 3589.06683305 -724.73974609 3585.32666016 C-724.50591721 3584.236642 -724.27208832 3583.14662384 -724.03117371 3582.02357483 C-719.77109289 3562.42735625 -719.77109289 3562.42735625 -715.734375 3556.08203125 C-715.09943115 3555.06802246 -714.4644873 3554.05401367 -713.81030273 3553.00927734 C-712.79045288 3551.42687256 -712.79045288 3551.42687256 -711.75 3549.8125 C-711.03128986 3548.67483859 -710.31394939 3547.53631088 -709.59790039 3546.39697266 C-708.12779324 3544.06202802 -706.65040978 3541.73196041 -705.16650391 3539.40576172 C-702.50667831 3535.23249285 -699.89271825 3531.03096934 -697.27758789 3526.82958984 C-695.43213214 3523.86638094 -693.58036498 3520.90721199 -691.7265625 3517.94921875 C-689.19695645 3513.91237244 -686.67096652 3509.87330375 -684.1484375 3505.83203125 C-676.94903274 3494.29855194 -669.72268178 3482.78289382 -662.45166016 3471.29443359 C-659.96526467 3467.36454042 -657.48287225 3463.43211968 -655 3459.5 C-654.00001836 3457.91665507 -653.00001838 3456.33332172 -652 3454.75 C-651.2575 3453.574375 -651.2575 3453.574375 -650.5 3452.375 C-649 3450 -647.5 3447.625 -646 3445.25 C-645.50516113 3444.4664917 -645.01032227 3443.6829834 -644.50048828 3442.87573242 C-643.49890965 3441.28992675 -642.49728192 3439.70415209 -641.49560547 3438.1184082 C-639.01935816 3434.19815243 -636.54392299 3430.27738893 -634.0703125 3426.35546875 C-627.002365 3415.15182 -619.89900663 3403.9710238 -612.78222656 3392.79833984 C-610.43586586 3389.11423213 -608.09091222 3385.42923005 -605.74609375 3381.74414062 C-603.99496052 3378.99208001 -602.24357367 3376.2401809 -600.4921875 3373.48828125 C-598.18401114 3369.86123892 -595.87678682 3366.23359364 -593.5703125 3362.60546875 C-586.71930947 3351.83070944 -579.84796898 3341.06921815 -572.96142578 3330.31713867 C-568.62963612 3323.55191784 -564.30973176 3316.77929111 -560 3310 C-550.08314703 3294.4037919 -540.14281971 3278.82245432 -530.08129883 3263.3190918 C-525.74245824 3256.62333016 -521.46848574 3249.88661581 -517.19091797 3243.15161133 C-513.65245945 3237.58446886 -510.09229174 3232.03254196 -506.5 3226.5 C-502.40302297 3220.1883797 -498.3483384 3213.85088317 -494.3125 3207.5 C-484.71924805 3192.40401303 -475.11055153 3177.31723716 -465.375 3162.3125 C-460.72159597 3155.13995341 -456.12745866 3147.9305508 -451.54248047 3140.71411133 C-447.04283242 3133.63340671 -442.52523337 3126.56437696 -438 3119.5 C-431.21960165 3108.9130051 -424.46257869 3098.3113581 -417.71777344 3087.70166016 C-414.81326435 3083.13353941 -411.9064816 3078.56686586 -409 3074 C-408.42378906 3073.09443359 -407.84757812 3072.18886719 -407.25390625 3071.25585938 C-404.31351264 3066.63477098 -401.37232148 3062.01419338 -398.4296875 3057.39453125 C-391.41437351 3046.37939245 -384.42113044 3035.35073386 -377.45458984 3024.3046875 C-376.00918211 3022.01454836 -374.56159316 3019.72580343 -373.11328125 3017.4375 C-366.89893106 3007.61599347 -360.72522845 2997.76977987 -354.5715332 2987.91015625 C-350.69254706 2981.69821786 -346.79390553 2975.49931787 -342.875 2969.3125 C-338.22183433 2961.96290438 -333.62965709 2954.57712686 -329.05932617 2947.17578125 C-324.95947409 2940.53948251 -320.82834797 2933.92328011 -316.6875 2927.3125 C-309.40023599 2915.67074314 -302.1982291 2903.97758009 -295.01171875 2892.2734375 C-293.02125398 2889.03458414 -291.02694902 2885.79813036 -289.03125 2882.5625 C-280.36280585 2868.50510189 -271.76162807 2854.40822036 -263.2040863 2840.28317261 C-260.74743864 2836.2294364 -258.28364133 2832.18011186 -255.81640625 2828.1328125 C-247.44025916 2814.38601442 -239.16274207 2800.58427339 -230.95898438 2786.73388672 C-226.04093839 2778.43135739 -221.09811684 2770.14471263 -216.125 2761.875 C-201.35870212 2737.30560257 -186.90670844 2712.5526179 -172.60595703 2687.7097168 C-169.00666022 2681.46146791 -165.38101309 2675.22976045 -161.73022461 2669.01147461 C-154.8591528 2657.3005001 -148.22035058 2645.47306461 -141.65234375 2633.58984375 C-138.30568565 2627.53838858 -134.91222715 2621.51466661 -131.5 2615.5 C-120.55592553 2596.1821778 -109.82186156 2576.75748199 -99.328125 2557.19140625 C-96.26732511 2551.48726851 -93.17055989 2545.80348689 -90.0625 2540.125 C-79.58165378 2520.94340448 -69.28948521 2501.67265401 -59.28295898 2482.23974609 C-55.80925795 2475.49376741 -52.30564706 2468.76565146 -48.75 2462.0625 C-44.80242518 2454.6106696 -41.00643463 2447.08862419 -37.28027344 2439.52368164 C-34.80094026 2434.51412983 -32.24216715 2429.55402685 -29.62042236 2424.61795044 C-23.40599581 2412.91021865 -17.5494313 2401.04269973 -11.75 2389.125 C-10.7314396 2387.03662587 -9.71272039 2384.94832919 -8.69384766 2382.86010742 C-6.22758056 2377.80290915 -3.76530744 2372.74378083 -1.30505371 2367.68365479 C-0.13428179 2365.27613113 1.03756037 2362.86913318 2.20996094 2360.46240234 C10.06038911 2344.3415053 17.72455809 2328.14038056 25.22363281 2311.85302734 C26.78907042 2308.45445769 28.36249475 2305.05963173 29.93702698 2301.66526794 C69.34494086 2216.67541817 104.95019756 2129.8886753 142.45263672 2023.46582031 C143.48263147 2020.48926802 144.51818576 2017.51474962 145.55908203 2014.54199219 C182.96073708 1907.69687699 212.04027883 1797.5609737 264.16796875 1368.484375 C264.17120124 1366.00856509 264.1745666 1363.53275536 264.17805481 1361.0569458 C264.18398668 1355.89717163 264.1859012 1350.73741405 264.18530273 1345.57763672 C264.18522201 1340.39498362 264.19208966 1335.21241992 264.20581055 1330.02978516 C264.29103942 1297.29647464 263.85198643 1264.68438348 262 1232 C261.96105495 1231.30013725 261.92210991 1230.60027451 261.88198471 1229.8792038 C261.41615559 1221.51750803 260.86750034 1213.1642748 260.25 1204.8125 C260.12644638 1203.11219131 260.12644638 1203.11219131 260.00039673 1201.37753296 C251.80136865 1089.42517056 233.30102414 978.64420451 140 653 C139.58995728 651.87398376 139.58995728 651.87398376 139.17163086 650.72521973 C128.41884924 621.23156679 116.7615545 592.10333893 105 563 C103.76572298 566.70283105 103.52189215 570.33447349 103.19448853 574.19798279 C103.11973809 575.0455259 103.04498765 575.89306902 102.96797204 576.76629525 C102.71688932 579.62312109 102.47103455 582.48037339 102.22509766 585.33764648 C102.04585993 587.38860766 101.86628662 589.43953953 101.68640327 591.49044418 C101.29725322 595.93503603 100.91038325 600.37981853 100.52523041 604.82475853 C99.90822127 611.944645 99.28598885 619.06406901 98.66290283 626.1834259 C97.88968624 635.02205518 97.11761759 643.86078322 96.34710407 652.69964856 C93.94882003 680.2111767 91.53159815 707.72103901 89.109375 735.23046875 C88.93986997 737.15588556 88.93986997 737.15588556 88.76694059 739.12019968 C83.77878642 795.77287848 78.67597471 852.4113727 73 909 C72.89713684 910.02650414 72.79427368 911.05300827 72.68829346 912.11061859 C52.8478873 1109.95118433 52.8478873 1109.95118433 16 1217 C3.39751793 1226.90535996 -9.30504047 1229.17624059 -25 1228 C-47.74994963 1224.90528223 -65.1711357 1210.66680805 -80 1194 C-80.33 1193.34 -80.66 1192.68 -81 1192 C-84.04204412 1191.44876967 -84.04204412 1191.44876967 -87.73828125 1191.18359375 C-88.75404488 1191.0915139 -88.75404488 1191.0915139 -89.79032898 1190.99757385 C-91.96370655 1190.80199754 -94.13791995 1190.61917499 -96.3125 1190.4375 C-98.47611461 1190.25012304 -100.63944688 1190.06006297 -102.80253601 1189.86671448 C-104.77325054 1189.69159401 -106.74464711 1189.52420042 -108.71606445 1189.35717773 C-111.2788304 1189.07843812 -113.52712545 1188.65815915 -116 1188 C-115.96164866 1186.71667439 -115.96164866 1186.71667439 -115.92252254 1185.40742302 C-113.64853943 1109.14292564 -112.11780577 1032.8668679 -110.70931405 956.58227754 C-110.51131078 945.85848566 -110.31215958 935.13471571 -110.11234938 924.41095737 C-108.44763009 835.03950346 -106.87898288 745.66644825 -104.71750721 617.69609624 C-104.65353362 613.89882963 -104.58953996 610.10156336 -104.52553954 606.3042972 C-103.48657112 544.65969731 -102.45221537 483.01502124 -101.42946708 421.37014997 C-101.37965052 418.367641 -101.329831 415.36513208 -101.28000832 412.36262321 C-101.26772579 411.62242435 -101.25544326 410.88222548 -101.24278853 410.11959635 C-101.06012081 399.11241744 -100.87691203 388.10524765 -100.69324303 377.0980854 C-100.681366 376.38625835 -100.66948898 375.67443129 -100.65725204 374.94103371 C-100.53899044 367.8536226 -100.4206631 360.76621259 -100.30223689 353.67880423 C-100.04093885 338.03949045 -99.78143758 322.40014911 -99.52466923 306.76076028 C-99.35864059 296.65601976 -99.19065446 286.55131297 -99.02115113 276.44663014 C-98.92428393 270.66788947 -98.82829137 264.88913799 -98.73479068 259.11034179 C-97.66936062 193.36440172 -97.66936062 193.36440172 -95.328125 177.78125 C-95.16382996 176.62153687 -94.99953491 175.46182373 -94.83026123 174.26696777 C-94.48738604 171.87068127 -94.13780444 169.475344 -93.78125 167.08105469 C-93.24641023 163.47580204 -92.73903535 159.86740052 -92.234375 156.2578125 C-87.93225501 126.21394856 -80.54846457 103.67788828 -61 80 C-49.69740896 66.21168875 -38.60520055 52.33346418 -28 38 C-27.16831299 36.87803223 -27.16831299 36.87803223 -26.31982422 35.73339844 C-19.14270876 26.04641957 -12.02910653 16.31572897 -4.99829102 6.52197266 C-4.23150024 5.455354 -4.23150024 5.455354 -3.44921875 4.3671875 C-2.77379028 3.42528564 -2.77379028 3.42528564 -2.0847168 2.46435547 C-1 1 -1 1 0 0 Z " fill="#000000" transform="translate(1402,176)"/>
</svg>
