<svg fill="none" height="100%" width="100%" viewBox="0 0 1920 1920" xmlns:xlink="http://www.w3.org/1999/xlink" xmlns="http://www.w3.org/2000/svg"><g opacity="0" id="i0"><animate repeatCount="indefinite" attributeName="opacity" dur="3.9s" begin="0s" fill="freeze" values="0; 1; 1; 0; 0" keyTimes="0; 0.17094; 0.213675; 0.299145; 1" keySplines="0 0 0 1; 0.333 0 0.667 1; 1 0 1 1; 0 0 1 1" calcMode="spline" /><g transform="translate(960,344)"><animateTransform repeatCount="indefinite" type="translate" attributeName="transform" dur="3.9s" begin="0s" calcMode="spline" values="960 344; 960 1265; 960 1265; 960 1825; 960 1825" keyTimes="0; 0.17094; 0.213675; 0.299145; 1" keySplines="0 0 0 1; 0 0 1 1; 1 0 1 1; 0 0 1 1" fill="freeze" /><g transform="scale(0.6,0.6)"><animateTransform repeatCount="indefinite" type="scale" attributeName="transform" dur="3.9s" begin="0s" calcMode="spline" values="0.6 0.6; 1 1; 1 1; 0.6 0.6; 0.6 0.6" keyTimes="0; 0.17094; 0.213675; 0.299145; 1" keySplines="0 0 0 1; 0 0 1 1; 1 0 1 1; 0 0 1 1" fill="freeze" /><g transform="translate(0,-305)"><path d="M430,-105C430,-105,430,105,430,105C430,105,0.5,305,0.5,305C0.5,305,-430,105,-430,105C-430,105,-430,-105,-430,-105C-430,-105,0.5,95,0.5,95C0.5,95,430,-105,430,-105Z" fill="#2fff00" /></g></g></g></g><g opacity="0" visibility="hidden" id="i1"><animate repeatCount="indefinite" begin="0s" calcMode="discrete" dur="3.9s" values="hidden; visible; visible" keyTimes="0; 0.197; 1" attributeName="visibility" /><animate repeatCount="indefinite" attributeName="opacity" dur="3.9s" begin="0s" fill="freeze" values="0; 0; 1; 1; 0; 0" keyTimes="0; 0.196581; 0.367521; 0.410256; 0.495726; 1" keySplines="0 0 1 1; 0 0 0 1; 0.333 0 0.667 1; 1 0 1 1; 0 0 1 1" calcMode="spline" /><g transform="translate(960,344)"><animateTransform repeatCount="indefinite" type="translate" attributeName="transform" dur="3.9s" begin="0s" calcMode="spline" values="960 344; 960 344; 960 1265; 960 1265; 960 1825; 960 1825" keyTimes="0; 0.196581; 0.367522; 0.410257; 0.495727; 1" keySplines="0 0 1 1; 0 0 0 1; 0 0 1 1; 1 0 1 1; 0 0 1 1" fill="freeze" /><g transform="scale(0.6,0.6)"><animateTransform repeatCount="indefinite" type="scale" attributeName="transform" dur="3.9s" begin="0s" calcMode="spline" values="0.6 0.6; 0.6 0.6; 1 1; 1 1; 0.6 0.6; 0.6 0.6" keyTimes="0; 0.196581; 0.367522; 0.410257; 0.495727; 1" keySplines="0 0 1 1; 0 0 0 1; 0 0 1 1; 1 0 1 1; 0 0 1 1" fill="freeze" /><g transform="translate(0,-305)"><path d="M430,-105C430,-105,430,105,430,105C430,105,0.5,305,0.5,305C0.5,305,-430,105,-430,105C-430,105,-430,-105,-430,-105C-430,-105,0.5,95,0.5,95C0.5,95,430,-105,430,-105Z" fill="#2fff00" /></g></g></g></g><g opacity="0" visibility="hidden" id="i2"><animate repeatCount="indefinite" begin="0s" calcMode="discrete" dur="3.9s" values="hidden; visible; visible" keyTimes="0; 0.393; 1" attributeName="visibility" /><animate repeatCount="indefinite" attributeName="opacity" dur="3.9s" begin="0s" fill="freeze" values="0; 0; 1; 1; 0; 0" keyTimes="0; 0.393162; 0.564103; 0.606838; 0.692308; 1" keySplines="0 0 1 1; 0 0 0 1; 0.333 0 0.667 1; 1 0 1 1; 0 0 1 1" calcMode="spline" /><g transform="translate(960,344)"><animateTransform repeatCount="indefinite" type="translate" attributeName="transform" dur="3.9s" begin="0s" calcMode="spline" values="960 344; 960 344; 960 1265; 960 1265; 960 1825; 960 1825" keyTimes="0; 0.393162; 0.564103; 0.606838; 0.692308; 1" keySplines="0 0 1 1; 0 0 0 1; 0 0 1 1; 1 0 1 1; 0 0 1 1" fill="freeze" /><g transform="scale(0.6,0.6)"><animateTransform repeatCount="indefinite" type="scale" attributeName="transform" dur="3.9s" begin="0s" calcMode="spline" values="0.6 0.6; 0.6 0.6; 1 1; 1 1; 0.6 0.6; 0.6 0.6" keyTimes="0; 0.393162; 0.564103; 0.606838; 0.692308; 1" keySplines="0 0 1 1; 0 0 0 1; 0 0 1 1; 1 0 1 1; 0 0 1 1" fill="freeze" /><g transform="translate(0,-305)"><path d="M430,-105C430,-105,430,105,430,105C430,105,0.5,305,0.5,305C0.5,305,-430,105,-430,105C-430,105,-430,-105,-430,-105C-430,-105,0.5,95,0.5,95C0.5,95,430,-105,430,-105Z" fill="#2fff00" /></g></g></g></g><g opacity="0" visibility="hidden" id="i3"><animate repeatCount="indefinite" begin="0s" calcMode="discrete" dur="3.9s" values="hidden; visible; visible" keyTimes="0; 0.59; 1" attributeName="visibility" /><animate repeatCount="indefinite" attributeName="opacity" dur="3.9s" begin="0s" fill="freeze" values="0; 0; 1; 1; 0; 0" keyTimes="0; 0.589744; 0.760684; 0.803419; 0.888889; 1" keySplines="0 0 1 1; 0 0 0 1; 0.333 0 0.667 1; 1 0 1 1; 0 0 1 1" calcMode="spline" /><g transform="translate(960,344)"><animateTransform repeatCount="indefinite" type="translate" attributeName="transform" dur="3.9s" begin="0s" calcMode="spline" values="960 344; 960 344; 960 1265; 960 1265; 960 1825; 960 1825" keyTimes="0; 0.589744; 0.760684; 0.803419; 0.888889; 1" keySplines="0 0 1 1; 0 0 0 1; 0 0 1 1; 1 0 1 1; 0 0 1 1" fill="freeze" /><g transform="scale(0.6,0.6)"><animateTransform repeatCount="indefinite" type="scale" attributeName="transform" dur="3.9s" begin="0s" calcMode="spline" values="0.6 0.6; 0.6 0.6; 1 1; 1 1; 0.6 0.6; 0.6 0.6" keyTimes="0; 0.589744; 0.760684; 0.803419; 0.888889; 1" keySplines="0 0 1 1; 0 0 0 1; 0 0 1 1; 1 0 1 1; 0 0 1 1" fill="freeze" /><g transform="translate(0,-305)"><path d="M430,-105C430,-105,430,105,430,105C430,105,0.5,305,0.5,305C0.5,305,-430,105,-430,105C-430,105,-430,-105,-430,-105C-430,-105,0.5,95,0.5,95C0.5,95,430,-105,430,-105Z" fill="#2fff00" /></g></g></g></g><g opacity="0" visibility="hidden" id="i4"><animate repeatCount="indefinite" begin="0s" calcMode="discrete" dur="3.9s" values="hidden; visible; visible" keyTimes="0; 0.786; 1" attributeName="visibility" /><animate repeatCount="indefinite" attributeName="opacity" dur="3.9s" begin="0s" fill="freeze" values="0; 0; 1; 1; 0" keyTimes="0; 0.786325; 0.957265; 1; 1" keySplines="0 0 1 1; 0 0 0 1; 0.333 0 0.667 1; 1 0 1 1" calcMode="spline" /><g transform="translate(960,344)"><animateTransform repeatCount="indefinite" type="translate" attributeName="transform" dur="3.9s" begin="0s" calcMode="spline" values="960 344; 960 344; 960 1265; 960 1265; 960 1825" keyTimes="0; 0.786325; 0.957265; 1; 1" keySplines="0 0 1 1; 0 0 0 1; 0 0 1 1; 1 0 1 1" fill="freeze" /><g transform="scale(0.6,0.6)"><animateTransform repeatCount="indefinite" type="scale" attributeName="transform" dur="3.9s" begin="0s" calcMode="spline" values="0.6 0.6; 0.6 0.6; 1 1; 1 1; 0.6 0.6" keyTimes="0; 0.786325; 0.957265; 1; 1" keySplines="0 0 1 1; 0 0 0 1; 0 0 1 1; 1 0 1 1" fill="freeze" /><g transform="translate(0,-305)"><path d="M430,-105C430,-105,430,105,430,105C430,105,0.5,305,0.5,305C0.5,305,-430,105,-430,105C-430,105,-430,-105,-430,-105C-430,-105,0.5,95,0.5,95C0.5,95,430,-105,430,-105Z" fill="#2fff00" /></g></g></g></g></svg>